<svg xmlns="http://www.w3.org/2000/svg" viewBox="0 0 128 128">
  <defs>
    <linearGradient id="g" x1="16" y1="16" x2="112" y2="112" gradientUnits="userSpaceOnUse">
      <stop offset="0" stop-color="#54D2FF"/>
      <stop offset="1" stop-color="#1F7BFF"/>
    </linearGradient>
  </defs>

  <rect x="12" y="12" width="104" height="104" rx="20" fill="none" stroke="url(#g)" stroke-width="4"/>

  <g stroke="url(#g)" stroke-width="4" stroke-linecap="round">
    <path d="M28 40 H56" opacity="0.95"/>
    <path d="M28 52 H56" opacity="0.85"/>
    <path d="M28 64 H56" opacity="0.70"/>
    <path d="M28 76 H56" opacity="0.55"/>
  </g>

  <path d="M64 32 V96" stroke="url(#g)" stroke-width="4" stroke-linecap="round" opacity="0.35"/>

  <g stroke="url(#g)" stroke-width="4" fill="none" stroke-linejoin="round" stroke-linecap="round">
    <path d="M90 48 C80 48 74 56 70 60 C74 64 80 72 90 72 C100 72 106 64 110 60 C106 56 100 48 90 48"/>
    <circle cx="90" cy="60" r="6" fill="url(#g)"/>
  </g>

  <path d="M90 80 l2 6 6 2-6 2-2 6-2-6-6-2 6-2z" fill="url(#g)" opacity="0.75"/>
</svg>