<svg xmlns="http://www.w3.org/2000/svg" width="2048" height="2048" preserveAspectRatio="none" style="display:block" viewBox="0 0 2048 2048"><path fill="#303E44" d="M844.852 664.108c10.373-10.939 21.845-29.031 30.811-41.75l47.838-67.61c43.593-62.495 74.348-98.234 155.149-102.295 30.56-1.536 158.91 11.306 177.13 27.079 3.59 3.115 5.75 7.29 5.91 12.076.26 8.32-3.48 14.828-7.21 21.944 25.91-12.479 44.08-17.958 73.68-16.158 42.6 2.591 88.52 18.207 117.79 50.471 5.2 5.773 14.56 14.035 9.22 21.972-15.56 4.062-36.42-.193-53.62 1.875-48.62 5.845-128.75 9.609-161.24 50.204-12.33 19.784 4.88 56.301 11.57 74.174 23.98 64.138 41.81 105.554 3.5 169.031-44.95 74.47-91.26 147.979-138.27 221.079-9.92 15.43-23.41 22.13-41.43 16.89-21.24-20.07-42.07-57.98-43.32-87.86-.26-6.18 2.28-20.133.27-24.523-3.2.652-4.67 3.39-6.42 5.971-28.995 42.362-11.23 76.832 15.29 114.322 13.9 19.66 27.04 46.11 42.74 64.74 40.33 47.81 126.7-19.46 141.77 65.03-29.93 1.81-66.88.94-97.35.98l-189.828.44c2.189-16.01 6.867-28.53 20.676-38.61a48.1 48.1 0 0 1 20.417-8.66c10.741-1.76 22.955 1.66 28.005-7.23.22-6.55-4.61-12.63-9.058-16.79-18.405-17.23-60.483-64.85-79.979-76.22a52.05 52.05 0 0 0-25.349-7.22c-15.633-.28-30.621 12.08-42.894 20.7l-41.352 28.96c-8.207 5.81-21.038 15.45-29.647 20.04 23.385-44.03 41.631-93.43 77.466-127.89 25.641-24.65 57.225-43.445 86.991-62.702l100.942-64.833c29.66-18.814 70.42-44.123 92.14-71.724 21.39-27.17 29.86-63.15 18.78-96.424-11.72-35.217-32.38-58.457-64.95-75.615-56.64-29.841-120.844-34.269-181.473-14.576-18.929 6.148-40.893 14.649-57.389 25.938-1.852-4.948-2.297-3.946-7.306-5.226"/><path fill="#39ABCB" d="M1098.46 496.369c2.67-.282 5.34-.401 8.02-.357 12.01.295 27.67 3.169 39.65 5.23 27.45 4.723 47.76 15.255 17.72 37.852-10.81 6.393-21.38 9.511-34.1 7.558a48.46 48.46 0 0 1-31.61-19.333c-7.18-9.838-11.66-22.945.32-30.95"/><path fill="#303E44" d="M971.02 663.542c49.84-1.213 114.27 11.144 144.67 56.175 10.92 16.752 15.68 40.298 10.68 59.788-12.48 48.706-73.06 79.353-112.48 104.245l-98.984 63.594A23518 23518 0 0 1 575.565 1167.1c-27.066 18.12-57.37 36.2-90.323 39.8-12.334 1.35-27.859-.63-28.99-15.82 4.043-8.97 20.791-29.78 27.56-38.7l68.799-89.03L710.05 859.988c25.148-32.161 49.796-64.617 75.902-95.987 44.476-53.447 114.487-95.626 185.068-100.459"/><path fill="#303E44" d="m789.024 1062.65 1.258.7c.64 3.52-11.46 26.1-13.748 30.6-16.854 32.7-29.994 69.85-50.552 100.25-30.367 44.91-78.721 50.19-128.468 47.9-13.908-.64-29.495 2.06-43.478-.75-7.448-5.2-8.543-14.2-.98-19.4 12.846-8.83 26.345-17.15 38.951-26.36 64.05-46.77 132.655-86.62 197.017-132.94"/><path fill="#38464B" fill-opacity=".91" d="M832.693 680.732c4.463-5.747 8.092-10.604 12.159-16.624 5.009 1.28 5.454.278 7.306 5.226z"/></svg>